#N canvas 784 34 417 258 12;
#X obj 16 113 float 0;
#X obj 62 83 + 1;
#X msg 95 82 0;
#X obj 16 82 bng 19 250 50 0 empty empty empty 0 -10 0 12 #fcfcfc #000000 #000000;
#X obj 16 51 inlet;
#X obj 95 50 inlet;
#X obj 16 208 outlet;
#X obj 16 161 mod \$1;
#X obj 116 162 select;
#X obj 155 94 float \$1;
#X obj 155 129 - 1;
#X obj 116 209 outlet;
#X obj 155 50 loadbang;
#X text 94 30 reset;
#X text 15 30 bang;
#X text 221 33 generate bang;
#X text 222 53 when abstraction;
#X text 221 70 instance created;
#X connect 0 0 7 0;
#X connect 0 0 8 0;
#X connect 1 0 0 1;
#X connect 2 0 0 1;
#X connect 3 0 0 0;
#X connect 4 0 3 0;
#X connect 5 0 2 0;
#X connect 7 0 1 0;
#X connect 7 0 6 0;
#X connect 8 0 11 0;
#X connect 9 0 10 0;
#X connect 10 0 8 1;
#X connect 12 0 9 0;
