#N canvas 55 47 1512 859 12;
#X obj 235 139 soundfiler, f 17;
#X floatatom 235 168 5 0 0 0 - - - 0;
#X floatatom 302 167 5 0 0 0 - - - 0;
#X text 273 170 N;
#X text 339 167 fs;
#X obj 235 204 /;
#X text 278 233 duration of table (seconds);
#X text 277 221 period of phasor~;
#X obj 235 257 pow -1;
#X floatatom 235 292 5 0 0 0 - - - 0;
#X floatatom 235 229 5 0 0 0 - - - 0;
#X text 283 257 invert;
#X text 275 291 frequency of phasor;
#X obj 236 340 phasor~;
#X obj 201 339 - 1;
#X obj 236 368 *~;
#X msg 282 315 0;
#X text 311 317 reset;
#N canvas 0 22 450 278 (subpatch) 0;
#X array \$0-mySound 50000 float 2;
#X coords 0 1 50000 -1 200 140 1;
#X restore 17 33 graph;
#X msg 235 111 read -resize \$1 \$2-mySound \;;
#X obj 235 84 pack s \$0;
#X obj 235 59 symbol \$1;
#X obj 235 32 loadbang;
#X obj 236 422 outlet~;
#X obj 236 399 tabread4~ \$0-mySound;
#X obj 499 401 outlet;
#X text 552 403 T0;
#X obj 497 362 * 1000;
#X obj 420 399 outlet;
#X text 466 401 f0;
#X obj 517 53 inlet;
#X text 497 31 bang to reset;
#X obj 307 33 inlet;
#X obj 464 56 inlet;
#X text 446 55 f;
#X connect 0 0 1 0;
#X connect 0 1 2 0;
#X connect 1 0 5 0;
#X connect 1 0 14 0;
#X connect 2 0 5 1;
#X connect 5 0 10 0;
#X connect 8 0 9 0;
#X connect 8 0 28 0;
#X connect 9 0 13 0;
#X connect 10 0 8 0;
#X connect 10 0 27 0;
#X connect 13 0 15 0;
#X connect 14 0 15 1;
#X connect 15 0 24 0;
#X connect 16 0 13 1;
#X connect 19 0 0 0;
#X connect 20 0 19 0;
#X connect 21 0 20 0;
#X connect 22 0 21 0;
#X connect 24 0 23 0;
#X connect 27 0 25 0;
#X connect 30 0 16 0;
#X connect 32 0 21 0;
#X connect 33 0 9 0;
